<svg id="Layer_1" data-name="Layer 1" xmlns="http://www.w3.org/2000/svg" xmlns:xlink="http://www.w3.org/1999/xlink" width="78" height="30.16" viewBox="0 0 78 30.16"><defs><style>.cls-1{fill:none;}.cls-2{clip-path:url(#clip-path);}.cls-3{fill:#d51221;}.cls-4{fill:#f49916;}</style><clipPath id="clip-path"><rect class="cls-1" width="78" height="39.23"/></clipPath></defs><g class="cls-2"><path class="cls-3" d="M10.4,0H0V26H10.4a5.2,5.2,0,0,0,5.2-5.21h0V5.18A5.2,5.2,0,0,0,10.4,0h0M5.2,20.78V5.18H7.8a2.59,2.59,0,0,1,2.6,2.6h0v10.4a2.59,2.59,0,0,1-2.6,2.6Z"/><path class="cls-3" d="M75.38,0a2.59,2.59,0,0,0-2.6,2.6V26h2.6A2.62,2.62,0,0,0,78,23.41V0Z"/><path class="cls-3" d="M50.53,14.14a8.92,8.92,0,0,1-4.36,2.4,2.6,2.6,0,0,1-4,3.31,2.66,2.66,0,0,1-.59-1.67V16.76H36.41v6.63A2.6,2.6,0,0,0,39,26h5.2a7.81,7.81,0,0,0,6.52-12l-.19.2"/><path class="cls-3" d="M41.61,7.78A2.61,2.61,0,0,1,43,5.46V0H36.41V9.23h5.2Z"/><path class="cls-3" d="M18.2,2.58V9.23h2.61a3.77,3.77,0,0,1,2.6,1V0h-2.6a2.6,2.6,0,0,0-2.61,2.6h0"/><path class="cls-3" d="M31.21,0h-2.6V10.27a3.75,3.75,0,0,1,2.6-1h2.6V2.58A2.6,2.6,0,0,0,31.21,0h0"/><path class="cls-3" d="M54.61,26h2.61a2.61,2.61,0,0,0,2.6-2.6h0V16.76H54.61Z"/><path class="cls-3" d="M60.83,0h-1a5.2,5.2,0,0,0-5.2,5.2v5.07a3.75,3.75,0,0,1,2.6-1h2.6V2.58a3.72,3.72,0,0,1,1-2.6"/><path class="cls-3" d="M65.07,16.76H65v6.63a2.6,2.6,0,0,0,2.6,2.6h2.6V14.07a6.34,6.34,0,0,1-5.11,2.69"/><path class="cls-4" d="M44.21,0v5.2a2.6,2.6,0,1,1,.24,5.2H31.21a2.6,2.6,0,0,0-2.6,2.6h0v7.8H26a2.59,2.59,0,0,1-2.6-2.6V13a2.61,2.61,0,0,0-2.6-2.6H18.2v10.4A5.21,5.21,0,0,0,23.41,26h5.2a5.2,5.2,0,0,0,5.2-5.17V15.58h10.4a7.8,7.8,0,0,0,0-15.6h0"/><path class="cls-4" d="M44.21,16.73H42.78v1.45a1.43,1.43,0,0,0,1.45,1.41,1.44,1.44,0,0,0,1.41-1.46,1.43,1.43,0,0,0-1.43-1.4h0"/><path class="cls-4" d="M27.82,27H26.41v1.4a1.43,1.43,0,0,0,1.4,1.46,1.44,1.44,0,0,0,1.46-1.41A1.43,1.43,0,0,0,27.86,27h0"/><path class="cls-4" d="M24,27H22.57v1.4A1.44,1.44,0,0,0,24,29.89a1.43,1.43,0,0,0,1.45-1.41A1.42,1.42,0,0,0,24,27h0"/><path class="cls-4" d="M65,0H63.56A2.59,2.59,0,0,0,61,2.58v2.6h1.43a2.6,2.6,0,0,1,0,5.2H57.22A2.61,2.61,0,0,0,54.61,13v2.6H65a5.2,5.2,0,0,0,5.2-5.2h0V5.18A5.2,5.2,0,0,0,65,0h0"/></g></svg>